<?xml version="1.0" encoding="utf-8"?>
<!-- Generator: Adobe Illustrator 19.0.0, SVG Export Plug-In . SVG Version: 6.00 Build 0)  -->
<svg version="1.1" id="Layer_1" xmlns="http://www.w3.org/2000/svg" xmlns:xlink="http://www.w3.org/1999/xlink" x="0px" y="0px"
	 viewBox="0 0 96 96" style="enable-background:new 0 0 96 96;" xml:space="preserve">
<style type="text/css">
	.st0{fill:#333333;}
</style>
<g id="XMLID_2_">
	<path id="XMLID_6_" class="st0" d="M59.5,58.3V37.7c0-0.3-0.1-0.6-0.3-0.8s-0.5-0.3-0.8-0.3H37.7c-0.3,0-0.6,0.1-0.8,0.3
		s-0.3,0.5-0.3,0.8v20.6c0,0.3,0.1,0.6,0.3,0.8s0.5,0.3,0.8,0.3h20.6c0.3,0,0.6-0.1,0.8-0.3S59.5,58.6,59.5,58.3z M75.5,48
		c0,5-1.2,9.6-3.7,13.8c-2.5,4.2-5.8,7.5-10,10c-4.2,2.5-8.8,3.7-13.8,3.7s-9.6-1.2-13.8-3.7c-4.2-2.5-7.5-5.8-10-10
		S20.5,53,20.5,48s1.2-9.6,3.7-13.8s5.8-7.5,10-10S43,20.5,48,20.5s9.6,1.2,13.8,3.7s7.5,5.8,10,10C74.3,38.4,75.5,43,75.5,48z"/>
</g>
</svg>
